<svg width="157" height="48" viewBox="0 0 157 48" fill="none" xmlns="http://www.w3.org/2000/svg">
<path d="M156 24C156 26.8376 154.116 29.7336 150.245 32.5314C146.398 35.3127 140.765 37.8589 133.716 40.0143C119.628 44.3212 100.106 47 78.5 47C56.8935 47 37.3717 44.3212 23.2845 40.0143C16.2347 37.8589 10.6025 35.3127 6.75473 32.5314C2.88409 29.7336 1 26.8376 1 24C1 21.1624 2.88409 18.2664 6.75473 15.4686C10.6025 12.6873 16.2347 10.1411 23.2845 7.98574C37.3717 3.67884 56.8935 1 78.5 1C100.106 1 119.628 3.67884 133.716 7.98574C140.765 10.1411 146.398 12.6873 150.245 15.4686C154.116 18.2664 156 21.1624 156 24Z" stroke="#F94018" stroke-width="2"/>
</svg>
